<?xml version="1.0" standalone="no"?>
<!DOCTYPE svg PUBLIC "-//W3C//DTD SVG 20010904//EN"
 "http://www.w3.org/TR/2001/REC-SVG-20010904/DTD/svg10.dtd">
<svg version="1.0" xmlns="http://www.w3.org/2000/svg"
 width="512.000000pt" height="512.000000pt" viewBox="0 0 512.000000 512.000000"
 preserveAspectRatio="xMidYMid meet">
<metadata>
Created by potrace 1.11, written by Peter Selinger 2001-2013
</metadata>
<g transform="translate(0.000000,512.000000) scale(0.100000,-0.100000)"
fill="#000000" stroke="none">
<path d="M3720 5112 c0 -5 -16 -8 -35 -7 -19 1 -35 -1 -35 -6 0 -4 -18 -10
-40 -14 -22 -4 -42 -11 -46 -16 -3 -5 -10 -7 -15 -4 -5 4 -9 1 -9 -4 0 -6 -7
-11 -15 -11 -8 0 -15 -5 -15 -11 0 -5 -4 -8 -9 -5 -5 3 -14 -1 -21 -9 -7 -8
-18 -15 -24 -15 -7 0 -27 -13 -46 -30 -19 -16 -38 -29 -41 -30 -6 0 -198 -191
-226 -224 -7 -8 -35 -50 -62 -93 -27 -43 -57 -86 -65 -95 -9 -10 -14 -18 -11
-18 3 0 -6 -20 -19 -45 -14 -25 -22 -45 -18 -45 4 0 2 -4 -3 -8 -12 -8 -39
-64 -37 -74 1 -5 -3 -8 -8 -8 -6 0 -10 -8 -10 -17 0 -10 -7 -31 -15 -47 -8
-15 -15 -35 -15 -42 0 -8 -4 -14 -9 -14 -5 0 -8 -8 -7 -17 2 -9 -3 -28 -11
-42 -7 -15 -13 -33 -13 -42 0 -9 -3 -19 -7 -23 -4 -3 -8 -12 -10 -19 -1 -7 -7
-30 -13 -52 -6 -22 -12 -46 -12 -52 -1 -7 -5 -13 -10 -13 -4 0 -7 -3 -6 -7 3
-13 -13 -116 -20 -127 -7 -13 -11 -42 -17 -146 -2 -41 -7 -86 -11 -100 -11
-40 -11 -1302 0 -1325 5 -11 9 -79 8 -152 0 -73 2 -133 6 -133 4 0 8 -34 7
-75 0 -41 -3 -75 -8 -75 -34 0 -217 -185 -217 -220 0 -5 -5 -10 -11 -10 -5 0
-8 -4 -4 -9 3 -5 2 -12 -3 -15 -5 -3 -8 -28 -7 -56 1 -41 7 -56 30 -80 16 -17
35 -30 42 -30 7 0 13 -4 13 -9 0 -4 24 -7 53 -6 78 2 137 42 179 120 18 33 33
65 35 70 1 6 7 28 13 50 7 22 12 57 12 77 -1 30 5 42 28 58 15 11 30 20 33 20
3 0 18 5 34 12 15 6 31 12 36 13 4 2 9 4 12 5 3 1 8 3 13 5 4 1 15 5 25 8 56
22 56 22 112 37 22 6 47 12 55 12 8 0 21 5 28 11 7 5 15 7 18 4 3 -3 25 0 48
7 23 7 50 12 61 10 11 -2 24 1 30 5 5 5 30 7 55 6 25 -1 50 2 55 6 12 9 133
17 300 21 136 3 161 13 161 63 0 17 -8 38 -17 48 -16 17 -31 18 -196 13 -98
-3 -206 -6 -240 -7 -35 0 -63 -5 -63 -10 0 -5 -17 -8 -37 -6 -21 2 -46 -1 -57
-6 -10 -5 -37 -11 -60 -13 -88 -8 -96 -9 -96 -16 0 -5 -13 -8 -28 -8 -16 0
-32 -3 -36 -7 -3 -4 -14 -8 -24 -9 -30 -4 -57 -12 -96 -28 -21 -9 -42 -13 -47
-10 -5 3 -9 2 -9 -3 0 -4 -15 -13 -32 -19 -66 -22 -63 -23 -64 36 0 30 -4 64
-7 75 -4 11 -8 96 -8 188 -1 92 -5 169 -8 172 -10 5 -7 968 2 983 5 7 12 10
16 7 5 -2 20 9 35 25 14 17 31 30 37 30 5 0 8 4 4 9 -3 5 8 18 25 27 16 10 33
26 36 36 3 10 32 45 64 78 32 33 56 60 52 60 -4 1 3 9 15 19 12 10 19 21 16
25 -4 3 0 6 8 6 12 0 42 34 38 42 -1 2 13 19 32 39 65 70 99 110 99 116 0 3
17 25 38 48 59 68 81 95 75 95 -3 0 6 12 21 26 14 15 26 30 26 35 0 5 8 16 19
26 19 19 67 84 103 141 11 17 24 32 30 32 5 0 7 4 4 9 -3 5 1 14 9 21 8 7 15
19 15 26 0 8 4 14 9 14 8 0 71 95 70 107 0 3 3 9 8 12 21 16 139 249 135 269
-2 6 2 12 9 12 6 0 9 7 6 15 -4 8 -2 17 2 19 19 12 37 206 19 206 -4 0 -8 7
-8 16 0 22 -43 71 -58 66 -7 -2 -12 1 -12 7 0 6 -6 8 -14 5 -8 -3 -17 -1 -21
5 -7 13 -105 15 -105 3z m86 -140 c13 -8 16 -62 4 -62 -4 0 -7 -10 -7 -22 0
-13 -3 -30 -6 -38 -22 -53 -31 -76 -32 -85 0 -5 -7 -21 -15 -35 -8 -14 -13
-28 -12 -32 1 -5 -2 -8 -6 -8 -4 0 -14 -16 -21 -35 -7 -19 -17 -35 -22 -35 -5
0 -9 -7 -9 -15 0 -8 -5 -15 -11 -15 -5 0 -8 -4 -4 -9 3 -5 -3 -17 -12 -27 -10
-10 -18 -21 -18 -26 0 -5 -5 -12 -11 -16 -10 -6 -22 -32 -24 -50 -1 -4 -8 -11
-16 -15 -8 -4 -14 -14 -14 -22 0 -7 -12 -23 -27 -35 -16 -12 -28 -25 -27 -28
2 -10 -28 -55 -50 -74 -10 -10 -15 -18 -11 -18 5 0 -4 -13 -20 -30 -16 -16
-25 -30 -21 -30 4 0 -4 -11 -18 -24 -15 -13 -26 -28 -26 -35 0 -6 -9 -16 -20
-23 -11 -7 -20 -21 -20 -31 0 -9 -11 -22 -25 -29 -13 -6 -22 -15 -19 -19 3 -5
0 -9 -5 -9 -6 0 -11 -5 -11 -11 0 -6 -13 -25 -29 -42 -70 -75 -113 -127 -107
-127 4 0 -10 -16 -31 -36 -21 -20 -38 -40 -38 -44 0 -4 -24 -32 -53 -60 -29
-29 -51 -55 -48 -57 2 -2 -17 -24 -42 -48 -25 -25 -47 -44 -48 -42 -8 8 -6
128 3 139 5 7 8 28 6 46 -1 17 1 32 6 32 5 0 8 11 6 25 -1 14 2 28 6 31 5 3 9
20 9 39 0 19 4 36 10 40 5 3 7 12 3 20 -3 8 -1 15 5 15 5 0 12 19 16 42 4 23
11 47 16 53 4 5 8 12 8 15 0 4 17 67 27 100 4 12 27 68 39 95 8 17 22 49 32
73 9 23 22 42 27 42 6 0 8 3 4 6 -8 9 21 64 33 64 6 0 9 3 8 8 -2 13 15 47 29
55 7 5 11 12 8 16 -2 5 4 16 15 26 11 10 20 24 20 32 0 7 5 13 10 13 6 0 10 5
10 11 0 6 13 25 30 42 16 18 55 60 86 95 31 34 61 62 65 62 5 0 22 14 37 30
16 17 34 30 39 30 6 0 16 7 23 15 7 9 15 13 18 11 2 -3 10 0 18 7 31 28 44 37
44 33 0 -3 20 3 44 14 24 10 47 16 50 13 3 -4 6 -1 6 5 0 13 97 17 116 4z
m-1076 -3362 c0 -5 -4 -10 -10 -10 -5 0 -10 5 -10 10 0 6 5 10 10 10 6 0 10
-4 10 -10z m-16 -19 c3 -5 -8 -22 -24 -40 -17 -17 -30 -28 -30 -25 0 4 -7 1
-15 -6 -13 -11 -14 -10 -9 4 3 9 10 16 15 16 5 0 9 4 9 10 0 12 32 50 42 50 4
0 9 -4 12 -9z"/>
<path d="M2118 4566 c-21 -5 -38 -13 -38 -18 0 -5 -4 -7 -9 -4 -5 3 -14 -1
-21 -9 -7 -8 -16 -15 -21 -15 -5 0 -25 -18 -45 -40 -20 -22 -41 -40 -46 -40
-11 0 -38 -25 -38 -36 0 -4 -22 -30 -50 -58 -53 -54 -100 -111 -100 -119 0 -5
-30 -43 -62 -77 -9 -10 -14 -21 -11 -23 2 -3 -4 -14 -14 -25 -37 -41 -77 -102
-67 -102 4 0 -3 -9 -15 -19 -12 -11 -23 -23 -24 -28 -2 -15 -32 -66 -49 -85
-10 -10 -15 -18 -12 -18 4 0 1 -7 -6 -15 -7 -8 -9 -15 -6 -15 4 0 -2 -10 -14
-22 -11 -12 -25 -37 -32 -55 -7 -18 -15 -33 -18 -33 -6 0 -24 -32 -30 -55 -2
-5 -14 -27 -27 -47 -13 -21 -21 -38 -18 -38 3 0 -4 -10 -15 -22 -11 -13 -23
-33 -26 -45 -4 -13 -10 -23 -15 -23 -5 0 -8 -4 -6 -8 3 -10 -55 -125 -68 -134
-5 -4 -6 -8 -1 -8 5 0 3 -7 -4 -15 -7 -8 -9 -15 -4 -15 5 0 4 -4 -1 -8 -6 -4
-19 -25 -30 -47 -11 -22 -24 -43 -30 -47 -5 -4 -6 -8 -1 -8 5 0 3 -7 -4 -15
-7 -8 -9 -15 -5 -15 4 0 2 -7 -5 -15 -14 -17 -17 -115 -4 -136 5 -8 9 -18 9
-24 2 -33 87 -121 118 -123 5 0 16 -10 26 -20 9 -11 35 -25 58 -31 23 -6 45
-16 49 -22 3 -6 12 -8 20 -5 7 3 16 1 19 -4 4 -6 17 -10 31 -10 13 0 24 -4 24
-9 0 -6 9 -8 21 -6 11 2 28 0 37 -5 26 -13 73 -23 110 -22 17 0 32 -3 32 -8 0
-4 18 -7 40 -6 22 1 40 -2 40 -6 0 -4 31 -8 69 -8 39 0 72 -4 75 -8 10 -17
114 -7 136 13 39 35 5 117 -45 107 -14 -2 -31 0 -38 6 -6 5 -25 9 -42 8 -16
-2 -68 3 -115 11 -47 7 -101 15 -120 17 -19 2 -42 6 -50 9 -26 10 -75 20 -84
18 -4 -1 -13 2 -20 7 -6 4 -21 7 -33 6 -13 0 -23 3 -23 7 0 5 -8 9 -18 9 -10
0 -28 7 -40 16 -12 8 -22 12 -22 9 0 -4 -13 3 -29 14 -16 12 -32 21 -35 21
-10 0 -51 42 -68 71 -15 24 -15 29 5 70 11 24 21 49 22 55 0 6 6 19 14 28 7 9
11 16 7 16 -3 0 5 18 19 40 14 22 22 40 19 40 -4 0 6 16 20 35 15 19 23 35 19
35 -4 0 -3 4 2 8 12 8 39 64 37 75 -1 4 2 7 7 7 8 0 24 37 22 53 -1 4 4 7 9 7
6 0 10 7 10 15 0 8 4 15 10 15 5 0 9 3 8 8 -3 12 24 62 34 62 4 0 8 3 7 8 -2
15 14 52 23 52 5 0 6 5 3 10 -3 6 0 13 8 16 9 3 18 15 21 27 3 13 15 32 26 45
11 12 18 22 14 22 -3 0 -1 7 6 15 7 8 9 15 5 15 -5 0 2 9 15 20 13 11 19 20
14 20 -5 0 -4 4 1 8 12 9 32 39 45 70 5 12 14 22 20 22 6 0 9 4 6 9 -3 4 3 16
14 26 11 10 17 22 14 26 -3 5 0 9 6 9 6 0 15 11 20 25 5 14 17 28 25 31 8 4
15 11 15 18 0 13 38 61 87 111 18 18 30 35 27 37 -2 3 14 22 36 42 22 20 37
36 34 36 -3 0 8 11 24 25 17 14 33 25 37 25 4 0 15 8 24 18 28 30 57 42 70 29
6 -6 11 -17 11 -24 0 -7 5 -13 10 -13 10 0 35 -48 32 -62 -1 -5 2 -8 7 -8 8 0
26 -38 29 -63 1 -4 9 -22 19 -40 9 -17 16 -42 14 -54 -1 -13 2 -23 7 -23 7 0
26 -56 35 -110 13 -66 19 -97 24 -110 3 -8 8 -28 10 -45 2 -16 6 -46 9 -65 3
-19 8 -63 11 -97 2 -35 8 -63 12 -63 9 0 12 -62 17 -392 3 -131 1 -238 -3
-238 -5 0 -8 -38 -7 -85 1 -47 -2 -87 -6 -90 -4 -2 -8 -32 -9 -66 -1 -33 -5
-68 -9 -77 -5 -9 -7 -37 -6 -62 1 -25 -2 -50 -7 -56 -4 -5 -7 -27 -5 -47 2
-21 0 -40 -5 -43 -5 -3 -9 -30 -9 -60 0 -30 -4 -54 -8 -54 -4 0 -7 -19 -7 -42
1 -24 -2 -47 -6 -53 -4 -5 -6 -27 -5 -49 1 -21 -4 -40 -10 -43 -7 -3 -10 -20
-6 -49 3 -29 1 -44 -7 -44 -6 0 -9 -13 -7 -32 2 -18 -1 -42 -7 -53 -5 -11 -10
-34 -9 -52 1 -18 -2 -35 -7 -37 -5 -3 -6 -16 -4 -30 3 -13 0 -27 -6 -30 -6 -4
-11 -26 -11 -50 0 -23 -3 -46 -7 -50 -4 -4 -8 -19 -9 -34 -1 -15 -2 -27 -4
-27 -1 0 -3 -14 -4 -32 -1 -18 -5 -35 -9 -39 -4 -4 -7 -24 -7 -44 0 -20 -3
-40 -7 -44 -4 -3 -8 -19 -10 -34 -5 -50 -15 -92 -22 -92 -4 0 -6 -13 -3 -30 2
-16 0 -30 -5 -30 -6 0 -9 -16 -8 -35 1 -19 -2 -35 -7 -35 -4 0 -8 -13 -8 -28
0 -16 -3 -32 -7 -36 -4 -4 -8 -17 -8 -29 -1 -12 -5 -30 -10 -40 -4 -10 -5 -20
-2 -24 4 -3 0 -18 -8 -33 -8 -15 -12 -30 -8 -33 3 -4 2 -14 -2 -24 -5 -10 -9
-25 -9 -35 -1 -9 -4 -20 -8 -24 -5 -4 -8 -20 -8 -35 0 -15 -4 -30 -9 -34 -6
-3 -10 -13 -10 -23 0 -34 -10 -73 -20 -86 -6 -7 -8 -16 -5 -19 4 -3 3 -14 -1
-24 -9 -21 -14 -39 -19 -75 -3 -14 -9 -36 -16 -47 -6 -12 -8 -26 -5 -32 4 -5
2 -15 -4 -22 -5 -7 -15 -33 -21 -57 -6 -25 -12 -49 -14 -55 -1 -5 -6 -27 -11
-47 -4 -21 -11 -38 -15 -38 -4 0 -6 -11 -5 -25 2 -14 0 -27 -5 -30 -5 -3 -11
-23 -15 -45 -4 -22 -10 -40 -15 -40 -5 0 -7 -11 -5 -25 1 -14 -2 -25 -6 -25
-5 0 -9 -11 -9 -25 0 -14 -4 -25 -9 -25 -6 0 -8 -9 -6 -20 2 -11 0 -22 -6 -25
-14 -9 -10 -47 6 -69 17 -22 77 -30 98 -13 15 13 42 94 38 115 -1 6 2 12 7 12
10 0 25 52 25 83 0 9 4 17 9 17 6 0 8 9 5 19 -3 11 1 22 8 25 8 2 11 15 8 30
-3 14 -1 26 5 26 6 0 13 23 17 50 4 28 10 50 15 50 4 0 7 10 7 23 0 12 5 34
11 49 6 15 13 40 16 55 2 15 5 29 6 31 2 1 3 10 4 20 0 11 7 26 13 34 7 8 10
18 7 21 -4 3 -3 14 1 24 5 10 9 26 10 36 2 9 3 18 5 20 4 4 31 122 33 144 1
12 5 25 10 29 4 4 7 18 7 30 0 13 4 25 8 28 5 3 8 18 7 33 -1 15 2 34 8 41 5
6 7 12 3 12 -3 0 0 15 8 34 8 19 12 37 9 40 -3 3 -2 13 2 23 5 10 9 25 9 35 1
9 4 20 9 24 4 4 7 22 7 39 0 17 3 35 7 39 4 4 8 19 9 34 1 15 7 45 14 67 6 22
12 52 13 68 0 15 4 27 9 27 5 0 6 13 3 29 -3 17 -1 33 5 36 5 3 10 24 10 45 0
21 5 42 10 45 6 3 8 18 5 33 -2 14 -1 31 4 36 9 12 21 84 21 128 0 16 4 28 9
28 6 0 9 18 7 40 -2 22 0 40 4 40 7 0 14 39 23 125 1 17 5 35 9 40 3 6 6 28 6
50 0 22 5 51 9 65 5 14 8 36 7 50 -1 14 2 30 6 35 4 6 9 28 9 50 4 87 13 165
21 165 4 0 7 21 5 48 -1 26 1 52 5 57 4 6 8 26 7 45 0 19 4 57 8 84 4 28 8 70
8 95 0 26 3 51 6 56 9 13 7 605 -2 625 -4 8 -6 41 -5 72 2 32 0 59 -5 61 -4 1
-8 28 -9 60 -1 31 -5 57 -8 57 -3 0 -7 15 -8 33 -3 56 -14 122 -21 132 -4 6
-6 20 -5 33 0 12 -3 22 -7 22 -5 0 -9 13 -9 29 0 17 -4 32 -10 36 -5 3 -7 12
-3 20 3 9 0 21 -6 29 -7 8 -11 18 -10 22 3 12 -12 67 -22 79 -8 10 -33 78 -54
143 -4 12 -12 22 -18 22 -6 0 -8 3 -4 6 14 14 -76 115 -126 141 -40 21 -43 21
-89 9z"/>
<path d="M2144 3149 c-37 -20 -64 -75 -57 -114 3 -16 6 -35 6 -41 1 -15 57
-53 87 -57 28 -5 83 15 106 38 9 8 12 15 8 15 -5 0 -3 5 4 12 7 7 12 30 12 52
0 32 -7 45 -38 75 -42 40 -81 47 -128 20z"/>
</g>
</svg>
